<mxfile host="app.diagrams.net" modified="2020-12-17T12:45:13.582Z" agent="5.0 (Windows NT 10.0; Win64; x64) AppleWebKit/537.36 (KHTML, like Gecko) Chrome/87.0.4280.88 Safari/537.36" etag="OPWe4nWxefOUPHmjk2e8" version="14.0.4" type="github">
  <diagram id="y3YtMRqn67XkUIkOuAKu" name="Page-1">
    <mxGraphModel dx="1278" dy="580" grid="1" gridSize="10" guides="1" tooltips="1" connect="1" arrows="1" fold="1" page="1" pageScale="1" pageWidth="850" pageHeight="1100" math="0" shadow="0">
      <root>
        <mxCell id="0" />
        <mxCell id="1" parent="0" />
        <mxCell id="r-__T4CcAceCEPPsZtde-3" style="edgeStyle=orthogonalEdgeStyle;rounded=0;orthogonalLoop=1;jettySize=auto;html=1;entryX=0.5;entryY=0;entryDx=0;entryDy=0;" parent="1" source="r-__T4CcAceCEPPsZtde-1" target="r-__T4CcAceCEPPsZtde-6" edge="1">
          <mxGeometry relative="1" as="geometry">
            <mxPoint x="80" y="210" as="targetPoint" />
            <Array as="points">
              <mxPoint x="100" y="100" />
            </Array>
          </mxGeometry>
        </mxCell>
        <mxCell id="r-__T4CcAceCEPPsZtde-31" style="edgeStyle=orthogonalEdgeStyle;rounded=0;orthogonalLoop=1;jettySize=auto;html=1;entryX=0.5;entryY=0;entryDx=0;entryDy=0;" parent="1" source="r-__T4CcAceCEPPsZtde-1" target="r-__T4CcAceCEPPsZtde-30" edge="1">
          <mxGeometry relative="1" as="geometry" />
        </mxCell>
        <mxCell id="r-__T4CcAceCEPPsZtde-1" value="Prompt user to select from options" style="rounded=1;whiteSpace=wrap;html=1;" parent="1" vertex="1">
          <mxGeometry x="220" y="70" width="120" height="60" as="geometry" />
        </mxCell>
        <mxCell id="7uG-8Sl2I1e8dSW71SLf-2" style="edgeStyle=orthogonalEdgeStyle;rounded=0;orthogonalLoop=1;jettySize=auto;html=1;exitX=0.5;exitY=1;exitDx=0;exitDy=0;entryX=0;entryY=0.5;entryDx=0;entryDy=0;" edge="1" parent="1" source="r-__T4CcAceCEPPsZtde-6" target="7uG-8Sl2I1e8dSW71SLf-1">
          <mxGeometry relative="1" as="geometry" />
        </mxCell>
        <mxCell id="7uG-8Sl2I1e8dSW71SLf-11" style="edgeStyle=orthogonalEdgeStyle;rounded=0;orthogonalLoop=1;jettySize=auto;html=1;entryX=0.003;entryY=0.87;entryDx=0;entryDy=0;entryPerimeter=0;" edge="1" parent="1" source="r-__T4CcAceCEPPsZtde-6" target="r-__T4CcAceCEPPsZtde-1">
          <mxGeometry relative="1" as="geometry" />
        </mxCell>
        <mxCell id="r-__T4CcAceCEPPsZtde-6" value="View all entries" style="rhombus;whiteSpace=wrap;html=1;" parent="1" vertex="1">
          <mxGeometry x="60" y="210" width="80" height="80" as="geometry" />
        </mxCell>
        <mxCell id="r-__T4CcAceCEPPsZtde-7" value="1" style="text;html=1;strokeColor=none;fillColor=none;align=center;verticalAlign=middle;whiteSpace=wrap;rounded=0;" parent="1" vertex="1">
          <mxGeometry x="140" y="110" width="40" height="20" as="geometry" />
        </mxCell>
        <mxCell id="7uG-8Sl2I1e8dSW71SLf-7" style="edgeStyle=orthogonalEdgeStyle;rounded=0;orthogonalLoop=1;jettySize=auto;html=1;entryX=0.5;entryY=0;entryDx=0;entryDy=0;" edge="1" parent="1" source="r-__T4CcAceCEPPsZtde-30" target="7uG-8Sl2I1e8dSW71SLf-6">
          <mxGeometry relative="1" as="geometry" />
        </mxCell>
        <mxCell id="7uG-8Sl2I1e8dSW71SLf-13" style="edgeStyle=orthogonalEdgeStyle;rounded=0;orthogonalLoop=1;jettySize=auto;html=1;entryX=1;entryY=0.5;entryDx=0;entryDy=0;" edge="1" parent="1" source="r-__T4CcAceCEPPsZtde-30" target="r-__T4CcAceCEPPsZtde-1">
          <mxGeometry relative="1" as="geometry">
            <Array as="points">
              <mxPoint x="340" y="250" />
              <mxPoint x="340" y="170" />
              <mxPoint x="360" y="170" />
              <mxPoint x="360" y="100" />
            </Array>
          </mxGeometry>
        </mxCell>
        <mxCell id="r-__T4CcAceCEPPsZtde-30" value="Create entries" style="rhombus;whiteSpace=wrap;html=1;" parent="1" vertex="1">
          <mxGeometry x="240" y="210" width="80" height="80" as="geometry" />
        </mxCell>
        <mxCell id="r-__T4CcAceCEPPsZtde-32" value="2" style="text;html=1;strokeColor=none;fillColor=none;align=center;verticalAlign=middle;whiteSpace=wrap;rounded=0;" parent="1" vertex="1">
          <mxGeometry x="240" y="150" width="40" height="20" as="geometry" />
        </mxCell>
        <mxCell id="r-__T4CcAceCEPPsZtde-39" style="edgeStyle=orthogonalEdgeStyle;rounded=0;orthogonalLoop=1;jettySize=auto;html=1;" parent="1" source="r-__T4CcAceCEPPsZtde-35" edge="1">
          <mxGeometry relative="1" as="geometry">
            <mxPoint x="440" y="330" as="targetPoint" />
          </mxGeometry>
        </mxCell>
        <mxCell id="r-__T4CcAceCEPPsZtde-35" value="import from CSV" style="rhombus;whiteSpace=wrap;html=1;" parent="1" vertex="1">
          <mxGeometry x="400" y="210" width="80" height="80" as="geometry" />
        </mxCell>
        <mxCell id="r-__T4CcAceCEPPsZtde-36" value="" style="endArrow=classic;html=1;entryX=0.5;entryY=0;entryDx=0;entryDy=0;" parent="1" target="r-__T4CcAceCEPPsZtde-35" edge="1">
          <mxGeometry width="50" height="50" relative="1" as="geometry">
            <mxPoint x="330" y="70" as="sourcePoint" />
            <mxPoint x="460" y="70" as="targetPoint" />
            <Array as="points">
              <mxPoint x="440" y="70" />
            </Array>
          </mxGeometry>
        </mxCell>
        <mxCell id="r-__T4CcAceCEPPsZtde-37" value="3" style="text;html=1;strokeColor=none;fillColor=none;align=center;verticalAlign=middle;whiteSpace=wrap;rounded=0;" parent="1" vertex="1">
          <mxGeometry x="385" y="50" width="40" height="20" as="geometry" />
        </mxCell>
        <mxCell id="r-__T4CcAceCEPPsZtde-43" value="Exit" style="rhombus;whiteSpace=wrap;html=1;" parent="1" vertex="1">
          <mxGeometry x="710" y="320" width="80" height="80" as="geometry" />
        </mxCell>
        <mxCell id="7uG-8Sl2I1e8dSW71SLf-1" value="new_entries.csv" style="rounded=0;whiteSpace=wrap;html=1;" vertex="1" parent="1">
          <mxGeometry x="120" y="490" width="120" height="60" as="geometry" />
        </mxCell>
        <mxCell id="7uG-8Sl2I1e8dSW71SLf-9" style="edgeStyle=orthogonalEdgeStyle;rounded=0;orthogonalLoop=1;jettySize=auto;html=1;entryX=1;entryY=0.5;entryDx=0;entryDy=0;" edge="1" parent="1" source="7uG-8Sl2I1e8dSW71SLf-6" target="7uG-8Sl2I1e8dSW71SLf-1">
          <mxGeometry relative="1" as="geometry" />
        </mxCell>
        <mxCell id="7uG-8Sl2I1e8dSW71SLf-6" value="Prompt user to enter" style="rounded=1;whiteSpace=wrap;html=1;" vertex="1" parent="1">
          <mxGeometry x="220" y="350" width="120" height="50" as="geometry" />
        </mxCell>
        <mxCell id="7uG-8Sl2I1e8dSW71SLf-8" value="get access from" style="text;html=1;strokeColor=none;fillColor=none;align=center;verticalAlign=middle;whiteSpace=wrap;rounded=0;" vertex="1" parent="1">
          <mxGeometry x="50" y="400" width="40" height="20" as="geometry" />
        </mxCell>
        <mxCell id="7uG-8Sl2I1e8dSW71SLf-10" value="write into" style="text;html=1;strokeColor=none;fillColor=none;align=center;verticalAlign=middle;whiteSpace=wrap;rounded=0;" vertex="1" parent="1">
          <mxGeometry x="230" y="440" width="40" height="20" as="geometry" />
        </mxCell>
        <mxCell id="7uG-8Sl2I1e8dSW71SLf-16" style="edgeStyle=orthogonalEdgeStyle;rounded=0;orthogonalLoop=1;jettySize=auto;html=1;exitX=0.5;exitY=1;exitDx=0;exitDy=0;entryX=0.5;entryY=1;entryDx=0;entryDy=0;" edge="1" parent="1" source="7uG-8Sl2I1e8dSW71SLf-14" target="7uG-8Sl2I1e8dSW71SLf-1">
          <mxGeometry relative="1" as="geometry" />
        </mxCell>
        <mxCell id="7uG-8Sl2I1e8dSW71SLf-14" value="cleansed external file" style="rounded=0;whiteSpace=wrap;html=1;" vertex="1" parent="1">
          <mxGeometry x="385" y="330" width="120" height="60" as="geometry" />
        </mxCell>
        <mxCell id="7uG-8Sl2I1e8dSW71SLf-17" value="append into" style="text;html=1;strokeColor=none;fillColor=none;align=center;verticalAlign=middle;whiteSpace=wrap;rounded=0;" vertex="1" parent="1">
          <mxGeometry x="390" y="440" width="40" height="20" as="geometry" />
        </mxCell>
      </root>
    </mxGraphModel>
  </diagram>
</mxfile>
